<svg fill="none" height="38" viewBox="0 0 240 38" width="240" xmlns="http://www.w3.org/2000/svg">
    <style>.g{display:none}.g:target{display:inline}</style>
    <g class="g" id="colour"><g fill="#0a7da0"><path d="m227.299 22.2 11.4-12.8h-8.2l-9.8 11.8v-20.7h-6.9v36.6h6.9v-13.6l11 13.6h8.3z"/><path d="m199.298 37.4023c-4.1 0-7.4-1.9-8.6-3.6v-4.7c1.4 1.3 5.1 2.5 8.3 2.5 3.3 0 4.9-.9 4.9-2.9 0-1.5-.9-2.3-5.6-2.9-5.7-.8-8.4-3-8.4-7.1 0-5 4.5-9.29996 11.4-9.29996 3.7 0 6 1.19996 7.3 2.59996v4.8c-1.6-1-4.1-1.7-6.7-1.7-4.1 0-5.4 1.2-5.4 3 0 1.3.8 1.9 5.4 2.6 5.6.9 8.5 3.3 8.5 7.6.1 5.8-3.9 9.1-11.1 9.1z"/><path d="m174.599 26.3031h-4.4c.5 3.4 3.6 5.5 7.5 5.5 2.8 0 6.3-.7 8.4-2.7v2.2 2.4c-.3.4-2.6 3.8-9.7 3.6-6.7 0-13.2-5.3-13.2-13.5 0-8.9 5.5-14.59998 13.1-14.59998 5.6 0 10.7 3.99998 10.7 10.39998.2 5.1-3.5 6.7-12.4 6.7zm1.3-11.3c-3.2 0-5.5 2.6-5.6 5.7v.9h3c6.3 0 7.7-.7 7.7-2.6-.1-2.7-2.1-4-5.1-4z"/><path d="m153.1.502344v10.399956c-.5-.9-3.5-1.49996-6.2-1.49996-8.4 0-12.4 5.19996-12.4 13.99996 0 7.4 5.4 13.6 12.5 13.6h8.1 4.9c0-2.2 0-36.599956 0-36.599956h-6.9zm0 30.899956h-5.3c-3.8 0-6.7-3.6-6.7-9.2 0-4.3 2.2-7.4 6.5-7.4 3.7 0 5.6 2 5.6 4.8v11.8z"/><path d="m108.799 37.1016h6.9v-12.3h5.7c7 0 11.5-6.4 11.5-13.6 0-6.80004-4.7-10.600038-11.4-10.600038h-12.7zm11.5-17.9c-1.7 0-4.6 0-4.6 0v-12.70004c1.7-.4 4.9-.3 6.3-.2 2.7.3 3.9 2 3.9 5.40004 0 3.2-.7 7.5-5.6 7.5z"/><path d="m89.4988.101562c-10.7 0-16.7 8.799998-16.7 19.400038 0 11.1 7.5 18 16 18 10.6 0 16.7002-8.2 16.7002-19.1 0-10.50004-7.2002-18.300038-16.0002-18.300038zm-.1 31.200038c-5.9 0-9.4-4.6-9.4-12.8 0-7.7 3.5-12.30004 8.9-12.30004 6.4 0 9.4 4.90004 9.4 13.30004 0 7.1-3.7 11.8-8.9 11.8z"/><path d="m46.1992.5v6h9.8v30.6h6.9v-30.6h9.9v-6z"/></g><path d="m17.1 22.6984-17.1-17.19996c7.3-7.3 19.1-7.3 26.4 0l3.7 3.7z" fill="#c24530"/><path d="m26.4 32 13.2-13.2-13.2-13.3-13.2 13.3-13.2 13.2c7.3 7.3 19.1 7.3 26.4 0z" fill="#e65038"/></g>
    <g class="g" id="white" fill="#fff"><path d="m46.2109.390625v5.996195h9.8385v30.60768h6.8919v-30.60768h9.8385v-5.996195z"/><path d="m108.799 36.9958h6.892v-12.3312h5.689c6.977 0 11.549-6.4027 11.549-13.6523 0-6.77538-4.741-10.586519-11.396-10.586519h-12.734zm11.481-17.8531h-4.589v-12.7546c2.045-.31366 4.12-.37623 6.181-.18632 2.726.3557 3.945 1.96485 3.945 5.36952 0 3.4046-.559 7.5714-5.537 7.5714z"/><path d="m153.132.339844v10.417156c-.542-.89777-3.54-1.45674-6.215-1.45674-8.467 0-12.446 5.18314-12.446 14.04194 0 7.4021 5.452 13.5507 12.531 13.5507h13.022v-36.553056zm0 30.946456h-5.318c-3.844 0-6.773-3.6417-6.773-9.2484 0-4.3531 2.235-7.402 6.502-7.402 3.743 0 5.555 2.0495 5.555 4.8105z"/><path d="m227.333 22.1226 11.38-12.77156h-8.162l-9.839 11.80606v-20.766475h-6.892v36.603875h6.892v-13.5507l11.041 13.5507h8.247z"/><path d="m89.511 0c-10.6682 0-16.7473 8.80797-16.7473 19.3775 0 11.0778 7.5016 18.0056 15.9684 18.0056 10.6004 0 16.7299-8.1982 16.7299-19.0727.017-10.48486-7.1286-18.3104-15.951-18.3104zm-.1016 31.2005c-5.9098 0-9.432-4.5733-9.432-12.7885 0-7.7239 3.4714-12.33111 8.8732-12.33111 6.367 0 9.432 4.86131 9.432 13.29661 0 7.148-3.7254 11.823-8.8732 11.823z"/><path d="m174.619 26.255h-4.368c.491 3.3876 3.573 5.5219 7.501 5.5219 3.045.1446 6.044-.7912 8.467-2.6424v4.6581c-.322.4234-2.625 3.8619-9.686 3.6417-1.752-.0064-3.485-.3613-5.098-1.0442-1.614-.6828-3.075-1.6798-4.3-2.933-1.224-1.2532-2.187-2.7375-2.833-4.3665-.645-1.6291-.96-3.3703-.927-5.1223 0-8.9435 5.47-14.56705 13.124-14.56705 1.393-.0502 2.781.1815 4.082.68125 1.301.4997 2.487 1.2571 3.488 2.2268s1.796 2.1316 2.337 3.4162c.541 1.2845.817 2.6651.812 4.059-.034 4.8782-3.759 6.4705-12.599 6.4705zm1.237-11.3488c-1.502.0355-2.93.6584-3.978 1.7351s-1.632 2.5213-1.627 4.024v.8977h2.98c6.299 0 7.739-.6945 7.739-2.5916-.051-2.7101-2.033-4.0652-5.114-4.0652z"/><path d="m199.325 37.3838c-1.614.0682-3.223-.2232-4.71-.853-1.488-.6298-2.817-1.5823-3.892-2.7888v-4.6072c2.434 1.6897 5.335 2.5778 8.297 2.5407 3.286 0 4.877-.9485 4.877-2.9473 0-1.5413-.948-2.2866-5.571-2.9303-5.656-.7961-8.467-3.032-8.467-7.0972 0-5.0815 4.522-9.29917 11.363-9.29917 1.34-.11544 2.69.06098 3.956.51713 1.265.45614 2.417 1.18124 3.376 2.12524v4.8444c-2.033-1.1507-4.336-1.7355-6.672-1.6938-4.064 0-5.351 1.2365-5.351 2.9811 0 1.3551.796 1.8971 5.351 2.6424 5.571.8977 8.552 3.3877 8.552 7.6054.067 5.5896-3.895 8.9604-11.109 8.9604z"/><path d="m26.3995 31.8966 13.1913-13.212-13.1913-13.26272-13.2082 13.21192-13.2420812 13.2628c1.7316212 1.7464 3.7917812 3.1325 6.0616512 4.0784 2.26987.946 4.70453 1.433 7.16353 1.433 2.4589 0 4.8936-.487 7.1635-1.433 2.2698-.9459 4.33-2.332 6.0616-4.0784z"/><path d="m26.3995 5.42154c-1.7316-1.74637-3.7918-3.1325-6.0616-4.07844-2.2699-.94593-4.7046-1.4329438-7.1635-1.4329438-2.459.0000001-4.89366.4870138-7.16353 1.4329438-2.26987.94594-4.33003 2.33207-6.0616512 4.07844l13.1912812 13.21196 13.2082-13.21196z" opacity=".75"/></g>
</svg>
